<svg xmlns="http://www.w3.org/2000/svg" viewBox="0 0 240 240" role="img" aria-labelledby="title desc">
  <title id="title">Lesson mascot</title>
  <desc id="desc">A simple friendly robot illustration for the Hello World MAUI lesson.</desc>
  <defs>
    <linearGradient id="shell" x1="0%" y1="0%" x2="100%" y2="100%">
      <stop offset="0%" stop-color="#7c5cff" />
      <stop offset="100%" stop-color="#512bd4" />
    </linearGradient>
  </defs>
  <rect width="240" height="240" rx="48" fill="#eef3ff" />
  <rect x="62" y="52" width="116" height="92" rx="24" fill="url(#shell)" />
  <rect x="84" y="76" width="72" height="44" rx="14" fill="#ffffff" opacity="0.92" />
  <circle cx="108" cy="98" r="8" fill="#512bd4" />
  <circle cx="132" cy="98" r="8" fill="#512bd4" />
  <path d="M102 116c8 9 28 9 36 0" fill="none" stroke="#512bd4" stroke-linecap="round" stroke-width="6" />
  <path d="M120 36v20" stroke="#512bd4" stroke-linecap="round" stroke-width="8" />
  <circle cx="120" cy="28" r="10" fill="#ffb84d" />
  <path d="M84 150h72v18c0 20-16 36-36 36s-36-16-36-36z" fill="#ffffff" stroke="#cfd8ef" stroke-width="6" />
  <path d="M72 156l-20 18" stroke="#512bd4" stroke-linecap="round" stroke-width="10" />
  <path d="M168 156l20 18" stroke="#512bd4" stroke-linecap="round" stroke-width="10" />
  <path d="M96 206l-18 18" stroke="#512bd4" stroke-linecap="round" stroke-width="10" />
  <path d="M144 206l18 18" stroke="#512bd4" stroke-linecap="round" stroke-width="10" />
</svg>
